<?xml version="1.0" encoding="UTF-8" standalone="no"?>
<!-- Created with Inkscape (http://www.inkscape.org/) -->

<svg
   xmlns:dc="http://purl.org/dc/elements/1.1/"
   xmlns:cc="http://creativecommons.org/ns#"
   xmlns:rdf="http://www.w3.org/1999/02/22-rdf-syntax-ns#"
   xmlns:svg="http://www.w3.org/2000/svg"
   xmlns="http://www.w3.org/2000/svg"
   xmlns:sodipodi="http://sodipodi.sourceforge.net/DTD/sodipodi-0.dtd"
   xmlns:inkscape="http://www.inkscape.org/namespaces/inkscape"
   width="210mm"
   height="297mm"
   viewBox="0 0 744.09448819 1052.3622047"
   id="svg2"
   version="1.1"
   inkscape:version="0.91 r13725"
   sodipodi:docname="meys-aquatics-bowl.svg">
  <sodipodi:namedview
     id="base"
     pagecolor="#ffffff"
     bordercolor="#666666"
     borderopacity="1.0"
     inkscape:pageopacity="0.0"
     inkscape:pageshadow="2"
     inkscape:zoom="0.49497475"
     inkscape:cx="-145.78626"
     inkscape:cy="442.4213"
     inkscape:document-units="px"
     inkscape:current-layer="layer1"
     showgrid="false"
     inkscape:window-width="1197"
     inkscape:window-height="792"
     inkscape:window-x="170"
     inkscape:window-y="0"
     inkscape:window-maximized="0" />
  <defs
     id="defs4">
    <clipPath
       clipPathUnits="userSpaceOnUse"
       id="clipPath3374">
      <rect
         y="819.01697"
         x="669.22607"
         height="76.266518"
         width="84.34774"
         id="rect3376"
         style="fill:#0000ff;fill-rule:evenodd;stroke:#000000;stroke-width:1px;stroke-linecap:butt;stroke-linejoin:miter;stroke-opacity:1"
         transform="scale(-1,1)" />
    </clipPath>
    <clipPath
       clipPathUnits="userSpaceOnUse"
       id="clipPath3380">
      <rect
         style="fill:#0000ff;fill-rule:evenodd;stroke:#000000;stroke-width:1px;stroke-linecap:butt;stroke-linejoin:miter;stroke-opacity:1"
         id="rect3382"
         width="301.02545"
         height="234.35539"
         x="229.30463"
         y="396.77319" />
    </clipPath>
    <clipPath
       clipPathUnits="userSpaceOnUse"
       id="clipPath3392">
      <path
         style="fill:none;fill-rule:evenodd;stroke:#000000;stroke-width:1px;stroke-linecap:butt;stroke-linejoin:miter;stroke-opacity:1"
         d="m 375.77675,412.93562 c -0.85935,-1.22499 -2.05047,0.245 -3.03046,0 -0.5165,-0.12912 -0.99008,-0.5926 -1.51523,-0.50508 -0.59877,0.0998 -0.95162,0.78471 -1.51523,1.01016 -0.62527,0.2501 -1.35995,-0.13207 -2.0203,0 -0.52206,0.10441 -0.99008,0.41755 -1.51523,0.50507 -0.49821,0.083 -1.01703,0.083 -1.51523,0 -0.52515,-0.0875 -0.99008,-0.5926 -1.51523,-0.50507 -1.58802,0.26467 -1.13515,0.92512 -2.0203,1.51523 -0.31324,0.20882 -0.67344,0.33671 -1.01016,0.50507 -0.33671,0.16836 -0.65301,0.38603 -1.01015,0.50508 -0.15972,0.0532 -0.34536,-0.0532 -0.50508,0 -0.35714,0.11905 -0.65301,0.38603 -1.01015,0.50507 -0.34741,0.11581 -1.21722,-0.149 -1.51523,0 -0.21296,0.10648 -0.29211,0.3986 -0.50507,0.50508 -0.15059,0.0753 -0.3545,-0.0753 -0.50508,0 -0.21296,0.10648 -0.33672,0.33672 -0.50508,0.50508 -0.16836,0.16836 -0.33671,0.33672 -0.50507,0.50507 -1.67513,1.67513 0.47619,-0.23809 -1.01016,0.50508 -0.61793,0.30897 -0.64104,1.02309 -1.01015,1.51523 -0.28571,0.38095 -0.67343,0.67343 -1.01015,1.01015 -0.67344,0.67344 -1.34687,1.34687 -2.02031,2.02031 -0.29705,0.29705 -1.78641,1.90336 -2.0203,2.0203 -0.15059,0.0753 -0.38603,-0.11905 -0.50508,0 -0.11904,0.11905 0.11905,0.38603 0,0.50508 -0.23809,0.23809 -0.70898,-0.15059 -1.01015,0 -2.10201,1.051 0.53995,-0.0349 -0.50508,1.01015 -0.11904,0.11905 -0.35449,-0.0753 -0.50507,0 -0.21296,0.10648 -0.29212,0.3986 -0.50508,0.50508 -0.15058,0.0753 -0.33672,0 -0.50507,0 -0.33672,0.16836 -0.69692,0.29625 -1.01016,0.50507 -1.16034,0.77357 0.21658,0.2885 -1.01015,1.51523 -0.23809,0.2381 -0.85957,-0.30117 -1.01015,0 -0.15059,0.30117 0.10648,0.69072 0,1.01015 -0.0215,0.0646 -1.95572,1.99878 -2.02031,2.02031 -0.002,7.6e-4 -1.51474,-4.8e-4 -1.51523,0 -0.11904,0.11905 0.11905,0.38603 0,0.50508 -0.0405,0.0405 -2.12783,0 -2.52538,0 -0.16836,0 -0.38603,-0.11905 -0.50507,0 -0.11905,0.11904 0.15058,0.42978 0,0.50507 -0.30117,0.15059 -0.69072,-0.10648 -1.01016,0 -0.45175,0.15059 -0.58423,0.7972 -1.01015,1.01015 -0.15058,0.0753 -0.35449,-0.0753 -0.50507,0 -0.21296,0.10648 -0.29212,0.3986 -0.50508,0.50508 -0.30117,0.15059 -0.72999,-0.18678 -1.01015,0 -0.39622,0.26414 -0.67344,0.67344 -1.01016,1.01015 -0.16836,0.16836 -0.2792,0.42979 -0.50507,0.50508 -0.31944,0.10648 -0.68349,-0.0817 -1.01016,0 -0.91415,-0.30442 -0.93935,0.81819 -1.51522,1.01015 -0.31944,0.10648 -0.74722,-0.21034 -1.01016,0 -0.65733,0.52587 -0.91999,1.42507 -1.51523,2.02031 -0.11904,0.11904 -0.34535,-0.0532 -0.50507,0 -0.35714,0.11904 -0.71619,0.2699 -1.01015,0.50507 -0.55777,0.44621 -0.95747,1.06902 -1.51523,1.51523 -0.29397,0.23518 -0.64493,0.41377 -1.01016,0.50508 -0.32666,0.0817 -0.77205,-0.2381 -1.01015,0 -0.16836,0.16836 0.67344,0.33672 0.50508,0.50507 -1.05101,1.05101 -2.32814,0.91154 -3.53554,1.51523 -0.79521,0.39761 -1.96164,1.26866 -2.52538,2.02031 -0.45175,0.60234 -0.47775,1.48791 -1.01015,2.0203 -0.11905,0.11905 -0.38603,-0.11904 -0.50508,0 -0.11904,0.11905 0.11905,0.38603 0,0.50508 -0.11904,0.11905 -0.38602,-0.11905 -0.50507,0 -0.2381,0.2381 0.15058,0.70898 0,1.01015 -0.27147,0.54294 -0.63095,1.04122 -1.01015,1.51523 -0.29748,0.37184 -0.7972,0.58424 -1.01016,1.01015 -0.15058,0.30117 0.20203,0.74078 0,1.01016 -0.36421,0.48562 -1.08599,0.58092 -1.51523,1.01015 -0.11904,0.11905 0.11905,0.38603 0,0.50508 -0.26619,0.26619 -0.74395,0.23887 -1.01015,0.50507 -0.11905,0.11905 0.0408,0.34175 0,0.50508 -0.12912,0.5165 -0.20975,1.07225 -0.50507,1.51523 -0.0934,0.14008 -0.38603,-0.11905 -0.50508,0 -0.11905,0.11904 0.11905,0.38603 0,0.50507 -0.11905,0.11905 -0.35449,-0.0753 -0.50508,0 -0.1341,0.067 -1.44817,1.38113 -1.51523,1.51523 -0.0753,0.15059 0.11905,0.38603 0,0.50508 -0.26619,0.2662 -0.69691,0.29625 -1.01015,0.50507 -0.19811,0.13208 -0.30697,0.37301 -0.50508,0.50508 -0.31323,0.20882 -0.74395,0.23888 -1.01015,0.50508 -0.11905,0.11904 0.0753,0.35449 0,0.50507 -0.30304,0.60609 -1.21218,0.90914 -1.51523,1.51523 -0.0753,0.15059 0.11905,0.38603 0,0.50508 -0.11904,0.11905 -0.38603,-0.11905 -0.50507,0 -0.2662,0.2662 -0.29626,0.69692 -0.50508,1.01015 -0.13207,0.19811 -0.3986,0.29212 -0.50508,0.50508 -0.0753,0.15058 0.16836,0.50507 0,0.50507 -0.16835,0 0.11905,-0.62412 0,-0.50507 -1.97117,1.97118 0.11692,0.27125 -0.50507,1.51523 -1.14963,1.14962 -0.13349,-0.10461 -0.50508,1.01015 -0.11905,0.35714 -0.29625,0.69692 -0.50507,1.01015 -0.13208,0.19811 -0.42979,0.2792 -0.50508,0.50508 -0.10648,0.31944 0,0.67343 0,1.01015 0,0.16836 0.0753,0.35449 0,0.50508 -0.21296,0.42591 -0.74601,0.61393 -1.01015,1.01015 -0.20883,0.31323 -0.29626,0.69692 -0.50508,1.01015 -0.13207,0.19811 -0.3986,0.29212 -0.50508,0.50508 -0.0753,0.15058 0.0753,0.35449 0,0.50507 -0.21295,0.42592 -0.79719,0.58424 -1.01015,1.01016 -0.0753,0.15058 0.0753,0.35449 0,0.50507 -0.10648,0.21296 -0.36222,0.3146 -0.50507,0.50508 -0.36422,0.48562 -0.58092,1.086 -1.01016,1.51523 -0.11904,0.11905 -0.42978,-0.15059 -0.50507,0 -0.15059,0.30117 0,0.67343 0,1.01015 0,0.16836 0.11904,0.38603 0,0.50508 -0.67344,0.67343 -0.48465,-1.07143 -1.01016,0.50507 -0.10648,0.31944 0.10648,0.69072 0,1.01016 -0.0753,0.22587 -0.39859,0.29211 -0.50507,0.50507 -0.0753,0.15059 0.0277,0.33901 0,0.50508 -0.14113,0.84678 -0.18625,1.72831 -0.50508,2.52538 -0.0625,0.15632 -0.38603,-0.11905 -0.50507,0 -0.11905,0.11905 0,0.33672 0,0.50508 0,0.58951 0.0985,2.63641 0,3.03045 -0.0913,0.36522 -0.38603,0.65301 -0.50508,1.01016 -0.095,0.28496 0,1.18334 0,1.51522 0,1.01016 0,2.02031 0,3.03046 0,0.33672 0,0.67344 0,1.01015 0,0.16836 0.0753,0.3545 0,0.50508 -0.10648,0.21296 -0.3986,0.29212 -0.50508,0.50508 -0.0753,0.15058 0,0.33671 0,0.50507 0,0.16836 0,0.33672 0,0.50508 0,0.84179 0,1.68359 0,2.52538 0,0.19966 -0.10785,2.30967 0,2.52538 0.10648,0.21296 0.42979,0.2792 0.50508,0.50508 0.13944,0.41831 -0.1606,2.20418 0,2.52538 0.10648,0.21296 0.3986,0.29212 0.50508,0.50508 0.34452,0.68904 -0.36819,0.46257 -0.50508,1.01015 -0.1225,0.48999 0,1.01015 0,1.51523 0,2.52538 0,5.05076 0,7.57614 0,0.8418 0,1.68359 0,2.52538 0,0.33672 0,0.67344 0,1.01016 0,0.16835 -0.0532,0.34535 0,0.50507 0.11905,0.35714 0.38603,0.65301 0.50508,1.01015 0.14174,0.42524 -0.15036,2.22468 0,2.52539 0.10648,0.21295 0.373,0.30697 0.50507,0.50507 0.41765,0.62647 0.67344,1.34687 1.01015,2.02031 0.16836,0.33671 0.38603,0.65301 0.50508,1.01015 0.0532,0.15972 -0.11905,0.38603 0,0.50508 0.11905,0.11904 0.38603,-0.11905 0.50508,0 0.11904,0.11904 -0.11905,0.38602 0,0.50507 0.2662,0.2662 0.74395,0.23888 1.01015,0.50508 0.23809,0.23809 -0.15059,0.70898 0,1.01015 0.10648,0.21296 0.33672,0.33672 0.50508,0.50508 0.33671,0.33672 0.74601,0.61394 1.01015,1.01015 0.0934,0.14008 -0.0753,0.35449 0,0.50508 0.10648,0.21296 0.3986,0.29211 0.50507,0.50507 0.0753,0.15059 -0.0753,0.35449 0,0.50508 0.10648,0.21296 0.3986,0.29212 0.50508,0.50508 0.0753,0.15058 -0.0753,0.35449 0,0.50507 0.10648,0.21296 0.37301,0.30697 0.50508,0.50508 0.20882,0.31323 0.29625,0.69692 0.50507,1.01015 0.13207,0.19811 0.37301,0.30697 0.50508,0.50508 0.20882,0.31323 0.29625,0.69691 0.50508,1.01015 0.13207,0.19811 0.39859,0.29212 0.50507,0.50508 0.0753,0.15058 -0.0753,0.35449 0,0.50507 0.10648,0.21296 0.3986,0.29212 0.50508,0.50508 0.0753,0.15058 -0.0934,0.36499 0,0.50507 0.26414,0.39622 0.67343,0.67344 1.01015,1.01016 0.16836,0.16836 0.30697,0.373 0.50508,0.50507 0.31323,0.20883 0.74395,0.23888 1.01015,0.50508 0.2662,0.2662 0.29625,0.69692 0.50508,1.01015 0.30652,0.45978 1.29139,1.06756 1.51522,1.51523 0.0753,0.15059 -0.11904,0.38603 0,0.50508 0.2381,0.23809 1.01016,-0.33672 1.01016,0 0,0.16836 -0.38603,-0.11905 -0.50508,0 -0.043,0.043 -0.0836,1.26453 0,1.51523 0.16836,0.33671 0.33672,0.67343 0.50508,1.01015 0.16836,0 0.38603,-0.11905 0.50507,0 0.11905,0.11905 0,0.33672 0,0.50507 0,0.40303 -0.101,2.22237 0,2.52539 1.2195,3.65847 -0.14561,-0.79631 1.01016,1.51522 0.15058,0.30117 -0.2381,0.77206 0,1.01016 0.11904,0.11904 0.38602,-0.11905 0.50507,0 1.04502,1.04502 -1.59693,-0.0408 0.50508,1.01015 0.15058,0.0753 0.35449,-0.0753 0.50508,0 0.42591,0.21296 0.58423,0.79719 1.01015,1.01015 0.30117,0.15059 0.70898,-0.15058 1.01015,0 2.10201,1.05101 -0.53994,-0.0349 0.50508,1.01015 0.0203,0.0203 1.83482,0 2.0203,0 2.52538,0 5.05076,0 7.57615,0 0.53428,0 3.27533,0.0867 3.53553,0 0.22588,-0.0753 0.2792,-0.42978 0.50508,-0.50507 0.31943,-0.10648 0.70898,0.15058 1.01015,0 0.15058,-0.0753 -0.0753,-0.35449 0,-0.50508 0.10648,-0.21296 0.3986,-0.29212 0.50507,-0.50507 0.0753,-0.15059 -0.11904,-0.38603 0,-0.50508 0.11905,-0.11905 0.38603,0.11905 0.50508,0 0.11905,-0.11905 -0.11905,-0.38603 0,-0.50508 0.11905,-0.11904 0.38603,0.11905 0.50508,0 0.11904,-0.11904 -0.11905,-0.38603 0,-0.50507 0.10325,-0.10326 1.31497,0.10013 1.51523,0 2.31153,-1.15577 -2.14325,0.20934 1.51522,-1.01016 0.3179,-0.10596 2.07013,0 2.52539,0 1.85194,0 3.70389,0 5.55584,0 0.3513,0 2.34272,0.0913 2.52538,0 0.21296,-0.10647 0.29211,-0.39859 0.50507,-0.50507 0.274,-0.137 1.88211,0.1382 2.02031,0 0.11905,-0.11905 -0.11905,-0.38603 0,-0.50508 0.11905,-0.11905 0.35449,0.0753 0.50507,0 0.21296,-0.10648 0.2792,-0.42978 0.50508,-0.50507 0.31944,-0.10648 0.70898,0.15058 1.01015,0 0.15059,-0.0753 -0.11904,-0.38603 0,-0.50508 0.0163,-0.0162 1.39274,0 1.51523,0 1.17851,0 2.35702,0 3.53554,0 0.16835,0 0.38602,-0.11905 0.50507,0 0.8418,0.84179 -1.85194,0.50508 1.01015,0.50508 2.69374,0 5.38748,0 8.08122,0 0.1225,0 1.49899,-0.0163 1.51523,0 0.11905,0.11904 -0.11904,0.38602 0,0.50507 0.11905,0.11905 0.33672,0 0.50508,0 0.33672,0 0.70898,-0.15058 1.01015,0 0.15059,0.0753 -0.15058,0.42979 0,0.50508 0.15803,0.079 2.71749,0 3.03046,0 0.16836,0 0.34536,-0.0532 0.50508,0 0.35714,0.11905 0.65301,0.38603 1.01015,0.50507 0.34741,0.11581 1.21722,-0.149 1.51523,0 0.21296,0.10648 0.2792,0.42979 0.50507,0.50508 0.3342,0.1114 2.8511,0 3.53554,0 1.01015,0 2.0203,0 3.03046,0 0.16835,0 0.33671,0 0.50507,0 0.16836,0 0.35449,-0.0753 0.50508,0 0.42592,0.21296 0.61394,0.74601 1.01015,1.01015 0.4552,1.00274 1.39943,0.19464 2.02031,0.50508 0.42591,0.21296 0.61393,0.74601 1.01015,1.01015 0.14008,0.0934 0.33672,0 0.50507,0 0.33672,0 0.72999,-0.18677 1.01016,0 0.31323,0.20883 0.23887,0.74396 0.50507,1.01015 1.97118,1.97118 0.27125,-0.11691 1.51523,0.50508 0.21296,0.10648 0.29212,0.3986 0.50508,0.50508 0.18068,0.0903 1.43721,-0.15604 1.51523,0 0.15058,0.30117 0,0.67343 0,1.01015 0.16836,0.50508 0.23116,1.0587 0.50507,1.51523 0.16279,0.27131 3.00479,3.00992 3.03046,3.03046 0.29397,0.23517 0.74396,0.23887 1.01015,0.50507 0.11905,0.11905 -0.11904,0.38603 0,0.50508 0.2662,0.2662 0.69692,0.29625 1.01016,0.50508 0.1981,0.13207 0.29211,0.39859 0.50507,0.50507 0.15059,0.0753 0.35449,-0.0753 0.50508,0 2.10201,1.051 -0.53995,-0.0349 0.50508,1.01015 0.26619,0.2662 0.69691,0.29626 1.01015,0.50508 0.19811,0.13207 0.33672,0.33672 0.50507,0.50508 0.65016,0.65016 1.09628,1.20721 2.02031,1.51523 0.30814,0.10271 2.64037,0 3.03046,0 1.17851,0 2.35702,0 3.53553,0 0.22747,0 1.36152,0.0769 1.51523,0 0.42592,-0.21296 0.5584,-0.85957 1.01015,-1.01016 1.07554,-0.35851 1.50349,0.51682 2.52538,-0.50507 0.11905,-0.11905 -0.11904,-0.38603 0,-0.50508 0.14945,-0.14944 1.70746,0.15643 2.02031,0 0.42592,-0.21296 0.58423,-0.79719 1.01015,-1.01015 0.274,-0.137 1.88211,0.1382 2.02031,0 0.11904,-0.11905 -0.11905,-0.38603 0,-0.50508 0.11904,-0.11905 0.35449,0.0753 0.50507,0 0.21296,-0.10648 0.29212,-0.3986 0.50508,-0.50507 0.15058,-0.0753 0.33672,0 0.50507,0 0.41341,0 2.88268,0.0739 3.03046,0 0.15059,-0.0753 -0.15058,-0.42979 0,-0.50508 0.085,-0.0425 3.38092,-0.0386 3.53554,0 2.43898,0.60975 -0.025,0.24002 1.51523,1.01015 0.15058,0.0753 0.33671,0 0.50507,0 0.8418,0 1.68359,0 2.52538,0 0.16836,0 0.33672,0 0.50508,0 0.16836,0 0.35449,-0.0753 0.50508,0 2.102,1.051 -0.53995,-0.0349 0.50507,1.01015 0.2381,0.2381 0.77206,-0.23809 1.01015,0 0.2662,0.2662 0.29626,0.69692 0.50508,1.01016 0.77356,1.16034 0.2885,-0.21658 1.51523,1.01015 0.2662,0.2662 0.23888,0.74395 0.50508,1.01015 0.23809,0.2381 0.77205,-0.23809 1.01015,0 0.0324,0.0324 0.94743,1.92623 1.01015,2.02031 0.26414,0.39621 0.79719,0.58423 1.01015,1.01015 0.0753,0.15058 -0.15058,0.42978 0,0.50508 0.30117,0.15058 0.67344,0 1.01016,0 0.33671,0.33671 0.61393,0.74601 1.01015,1.01015 0.0671,0.0448 2.26296,0 2.52538,0 0.16836,0 0.38603,-0.11905 0.50508,0 0.11904,0.11905 -0.11905,0.38603 0,0.50507 0.11904,0.11905 0.33671,0 0.50507,0 0.32337,0 2.94466,-0.0572 3.03046,0 0.39621,0.26415 0.67344,0.67344 1.01015,1.01016 0.16836,0.16836 0.29212,0.39859 0.50508,0.50507 0.69668,0.34834 0.45178,-0.61167 1.01015,0.50508 0.0753,0.15058 -0.0753,0.35449 0,0.50508 0.10648,0.21295 0.29212,0.39859 0.50508,0.50507 0.15058,0.0753 0.42978,-0.15058 0.50507,0 0.15059,0.30117 -0.10648,0.69072 0,1.01015 0.0753,0.22588 0.3986,0.29212 0.50508,0.50508 0.14497,0.28995 -0.10748,2.09545 0,2.52538 0.85052,3.40207 0.008,0.008 1.01015,1.01015 0.0126,0.0126 0,2.33564 0,2.52539 0,0.84179 0,1.68358 0,2.52538 0,0.33672 0,0.67343 0,1.01015 0,0.16836 -0.0532,0.34536 0,0.50508 0.11905,0.35714 0.38603,0.65301 0.50508,1.01015 0.10908,0.32725 0,2.11187 0,2.52538 0,0.55149 0.10888,2.19875 0,2.52538 -0.11905,0.35714 -0.29625,0.69692 -0.50508,1.01015 -0.13207,0.19811 -0.373,0.30697 -0.50507,0.50508 -0.20883,0.31324 -0.2792,0.70898 -0.50508,1.01015 -0.72937,0.97249 -2.1778,1.84326 -3.03046,2.52538 -0.18592,0.14874 -0.30317,0.37889 -0.50507,0.50508 -1.15104,0.7194 -2.51403,1.12648 -3.53554,2.02031 -0.40067,0.35058 -0.0961,1.17439 -0.50507,1.51522 -0.6965,0.58042 -1.82368,0.43604 -2.52539,1.01016 -1.20132,0.9829 -1.7887,2.60422 -3.03045,3.53553 -1.50585,1.12939 -3.41646,1.5915 -5.05077,2.52538 -0.73088,0.41765 -1.25599,1.16247 -2.0203,1.51523 -6.79009,3.13389 -2.34589,-0.28802 -8.08122,3.53554 -11.70216,7.80143 3.15642,-1.60521 -7.57615,6.06091 -3.4577,2.46979 -6.77999,5.22374 -10.6066,7.07107 -1.21292,0.58555 -2.76285,-0.42592 -4.04061,0 -2.35822,0.78607 -4.19722,2.78183 -6.56599,3.53553 -1.4439,0.45943 -3.03046,0 -4.54569,0 -1.34687,0 -2.69374,0 -4.04061,0 -1.17851,0 -2.39681,-0.30366 -3.53553,0 -1.455,0.388 -2.71863,1.29923 -4.04061,2.02031 -0.5329,0.29067 -1.15101,0.52453 -1.51523,1.01015 -0.20203,0.26937 0.28017,0.82338 0,1.01015 -3.6458,2.43053 0.40168,-2.64867 -2.52538,1.01015 -1.05173,1.31467 -1.7158,2.98889 -3.03046,4.04062 -0.52586,0.42069 -1.34687,0 -2.0203,0 -0.8418,0 -1.68359,0 -2.52538,0 -1.34687,0 -2.69374,0 -4.04061,0 -2.02031,0 -4.05758,0.2613 -6.06092,0 -1.90346,-0.24828 -3.66464,-1.18633 -5.55584,-1.51523 -1.99733,-0.34737 -4.04601,-0.2812 -6.06091,-0.50508 -2.53215,-0.28135 -5.04521,-0.71812 -7.57615,-1.01015 -3.69465,-0.42631 -7.41656,-0.58786 -11.11168,-1.01016 -4.04572,-0.46236 -8.08849,-0.95504 -12.12183,-1.51522 -2.0287,-0.28177 -4.02527,-0.78397 -6.06091,-1.01016 -2.51551,-0.2795 -5.12616,0.13011 -7.57615,-0.50507 -2.18648,-0.56687 -4.0046,-2.09577 -6.06091,-3.03046 -1.65075,-0.75034 -3.41203,-1.24407 -5.05076,-2.02031 -5.14524,-2.43721 -11.73598,-7.26976 -14.64722,-12.12183 -0.19368,-0.32281 -0.33671,-0.67343 -0.50507,-1.01015 0,-0.50507 0.22588,-1.06347 0,-1.51523 -0.16836,-0.33671 -0.70898,-0.2792 -1.01015,-0.50507 -0.38096,-0.28572 -0.64434,-0.70531 -1.01016,-1.01016 -0.64668,-0.5389 -1.55336,-0.81481 -2.0203,-1.51523 -1.58761,-2.38141 -2.45301,-5.19473 -4.04061,-7.57614 -0.46695,-0.70041 -1.63357,-0.76753 -2.02031,-1.51523 -2.18362,-4.22167 -3.53852,-8.82836 -5.55584,-13.13198 -0.51528,-1.09928 -1.51154,-1.92815 -2.0203,-3.03046 -0.51363,-1.11286 -0.53874,-2.40414 -1.01015,-3.53553 -0.37758,-0.90618 -1.03848,-1.66723 -1.51523,-2.52538 -1.01822,-1.8328 -2.66406,-5.67874 -3.03046,-7.07107 -0.38799,-1.47436 -0.2673,-3.03979 -0.50508,-4.54569 -0.26777,-1.69592 -0.78323,-3.34889 -1.01015,-5.05076 -0.11125,-0.83441 0.16509,-1.69994 0,-2.52538 -0.17781,-0.88904 -0.69181,-1.67647 -1.01015,-2.52538 -0.52669,-1.4045 -0.81298,-2.67303 -1.51523,-4.54569 -0.13218,-0.35249 -0.40165,-0.64818 -0.50508,-1.01015 -0.2036,-0.71261 -0.96317,-5.03905 -1.01015,-5.55584 -0.0762,-0.83834 0,-1.68359 0,-2.52538 0,-1.34687 -0.14874,-2.70198 0,-4.04061 0.13344,-1.20093 1.52282,-7.59891 2.02031,-9.09138 0.40546,-1.21638 1.03903,-2.34505 1.51522,-3.53553 0.19773,-0.49432 0.50508,-0.98283 0.50508,-1.51523 0,-0.37646 -0.41377,-0.64493 -0.50508,-1.01015 -0.0817,-0.32667 0,-0.67344 0,-1.01015 0,-0.33672 0,-0.67344 0,-1.01016 0,-1.01015 0,-2.0203 0,-3.03045 0,-1.68359 0,-3.36718 0,-5.05077 0,-1.34687 -0.096,-2.69716 0,-4.04061 0.073,-1.02148 0.33672,-2.0203 0.50508,-3.03045 0.16836,-1.34687 0.41479,-2.68627 0.50508,-4.04061 0.0784,-1.17591 -0.12337,-2.3635 0,-3.53554 0.0842,-0.7997 1.2206,-7.17629 1.51523,-9.09137 0.18102,-1.17663 0.16299,-2.39527 0.50507,-3.53554 0.17443,-0.58142 0.69784,-0.9947 1.01015,-1.51522 0.59488,-0.99146 1.12549,-2.65861 1.51523,-3.53554 0.30579,-0.68803 0.77206,-1.30602 1.01016,-2.0203 0.27147,-0.81441 0.24901,-1.706 0.50507,-2.52538 0.58778,-1.88089 1.36446,-3.6976 2.02031,-5.55584 0.35438,-1.00409 0.63628,-2.03346 1.01015,-3.03046 -0.91462,-2.11312 0.79719,-0.58424 1.01015,-1.01015 0.15059,-0.30117 -0.0476,-0.67682 0,-1.01016 0.12141,-0.84983 0.23361,-1.71097 0.50508,-2.52538 0.23809,-0.71428 0.67343,-1.34687 1.01015,-2.0203 0.33672,-0.67344 0.62278,-1.37468 1.01015,-2.02031 0.62463,-1.04104 1.44473,-1.96152 2.02031,-3.03046 1.49285,-1.92596 1.47668,-4.46859 2.52538,-6.56599 0.54294,-1.08588 1.37686,-2.00094 2.02031,-3.03045 0.19952,-0.31924 0.29625,-0.69692 0.50507,-1.01016 0.45756,-0.68634 2.07362,-2.63201 2.52538,-3.53553 0.33672,-0.8418 0.67344,-1.68359 1.01016,-2.52538 0.33671,-0.33672 0.76515,-0.60183 1.01015,-1.01016 2.24056,-3.73426 -1.55014,0.80125 1.51523,-3.03045 0.29747,-0.37185 0.67343,-0.67344 1.01015,-1.01016 0.67343,-0.67343 1.34687,-1.34687 2.0203,-2.0203 0.50508,-0.50508 1.10006,-0.93399 1.51523,-1.51523 0.43763,-0.61268 0.53981,-1.43237 1.01016,-2.0203 0.23517,-0.29397 0.68734,-0.31139 1.01015,-0.50508 0.52052,-0.31231 0.95162,-0.78471 1.51523,-1.01015 0.31263,-0.12506 0.72142,0.17324 1.01015,0 0.6125,-0.3675 0.9438,-1.08666 1.51523,-1.51523 0.78535,-0.58902 1.74003,-0.92622 2.52538,-1.51523 0.57143,-0.42857 0.9665,-1.05796 1.51523,-1.51523 0.46633,-0.38861 0.97229,-0.73868 1.51523,-1.01015 0.15058,-0.0753 0.38603,0.11905 0.50507,0 0.2662,-0.2662 0.23888,-0.74396 0.50508,-1.01015 0.42923,-0.42924 1.02961,-0.64594 1.51523,-1.01016 0.19048,-0.14285 0.29212,-0.39859 0.50508,-0.50507 0.15058,-0.0753 0.33671,0 0.50507,0 0.33672,-0.16836 0.70899,-0.2792 1.01015,-0.50508 0.38096,-0.28571 0.56803,-0.8333 1.01016,-1.01015 0.46895,-0.18758 1.03607,0.15972 1.51523,0 0.57587,-0.19196 0.93935,-0.8182 1.51522,-1.01016 0.47916,-0.15971 1.01703,0.083 1.51523,0 1.05031,-0.17505 1.98015,-0.8351 3.03046,-1.01015 0.49821,-0.083 1.01996,0.0991 1.51523,0 0.36915,-0.0738 0.68329,-0.3183 1.01015,-0.50507 0.85235,-0.48706 1.6283,-1.11653 2.52538,-1.51523 0.63434,-0.28193 1.39943,-0.19464 2.02031,-0.50508 0.75292,-0.37646 1.28942,-1.09758 2.0203,-1.51523 0.46225,-0.26414 1.03904,-0.26698 1.51523,-0.50507 0.54294,-0.27147 0.95729,-0.77104 1.51523,-1.01016 0.63804,-0.27344 1.39943,-0.19463 2.02031,-0.50507 0.42591,-0.21296 0.60634,-0.75777 1.01015,-1.01016 0.95772,-0.59857 2.0203,-1.01015 3.03046,-1.51522 0.33671,-0.16836 0.67343,-0.33672 1.01015,-0.50508 0.33672,-0.16836 0.64493,-0.41377 1.01015,-0.50508 0.65333,-0.16333 1.35995,0.13207 2.02031,0 4.24247,-0.84849 -2.38711,-0.3799 4.54568,-1.01015 0.83834,-0.0762 1.72191,0.25109 2.52538,0 11.39951,-3.56234 0.75649,-1.91914 9.09138,-3.03046 1.34544,-0.17939 2.68794,-0.39235 4.04061,-0.50507 0.67111,-0.0559 1.34687,0 2.0203,0 0.8418,0 1.68359,0 2.52538,0 1.17852,0 2.35703,0 3.53554,0 0.33672,0 0.69752,0.12505 1.01015,0 0.56361,-0.22545 0.97229,-0.73869 1.51523,-1.01016 0.15058,-0.0753 0.34536,0.0532 0.50508,0 0.35714,-0.11904 0.64493,-0.41377 1.01015,-0.50507 0.45787,-0.11447 1.93865,0 2.52538,0 0.33672,0 0.72142,0.17324 1.01015,0 0.6125,-0.3675 1.01015,-1.01015 1.51523,-1.51523 0.16836,-0.16836 0.2792,-0.42978 0.50508,-0.50508 0.31944,-0.10648 0.67343,0 1.01015,0 0.84179,0 1.68359,0 2.52538,0 0.33672,0 0.68349,0.0817 1.01015,0 0.36523,-0.0913 0.65301,-0.38603 1.01016,-0.50507 0.31943,-0.10648 0.69071,0.10648 1.01015,0 0.35714,-0.11905 0.64493,-0.41377 1.01015,-0.50508 0.10298,-0.0257 2.29986,-0.0752 2.52538,0 0.36911,0.12304 1.28408,0.54785 1.51523,1.01015 0.0753,0.15059 -0.0753,0.35449 0,0.50508 0.28952,0.57903 1.05385,0.70256 1.51523,1.01015 0.77242,0.51495 0.39679,0.69741 1.01015,1.51523 0.28572,0.38095 0.74601,0.61394 1.01016,1.01015 0.0934,0.14009 -0.11905,0.38603 0,0.50508 0.11904,0.11905 0.42978,-0.15059 0.50507,0 0.15059,0.30117 -0.15058,0.70898 0,1.01015 0.0753,0.15059 0.42979,-0.15058 0.50508,0 0.15058,0.30117 -0.10648,0.69072 0,1.01015 0.0753,0.22588 0.42978,0.2792 0.50507,0.50508 0,2.29925 -0.23809,0.0289 0.50508,1.51523 0.17444,0.34887 -0.17729,2.34809 0,2.52538 0.2381,0.2381 0.77206,-0.23809 1.01015,0 0.11905,0.11905 -0.0532,0.34536 0,0.50508 0.11905,0.35714 0.38603,0.65301 0.50508,1.01015 0.0532,0.15972 0,0.33672 0,0.50508 0,1.1121 0.0934,0.36499 -1.01015,2.0203 z"
         id="path3394"
         inkscape:connector-curvature="0" />
    </clipPath>
    <clipPath
       clipPathUnits="userSpaceOnUse"
       id="clipPath3398">
      <path
         style="fill:none;fill-rule:evenodd;stroke:#000000;stroke-width:0.43019944px;stroke-linecap:butt;stroke-linejoin:miter;stroke-opacity:1"
         d="m -684.65324,835.5305 c 0,0.72428 0,1.44855 0,2.17283 0,0.14486 -0.10243,0.33214 0,0.43457 0.10243,0.10243 0.33214,-0.10243 0.43457,0 0.10243,0.10243 -0.0458,0.29715 0,0.43457 0.10243,0.30728 0.20553,0.64009 0.43456,0.86913 0.10243,0.10243 0,-0.57942 0,-0.43457 0,0.43457 0,0.86914 0,1.30371 0,0.14485 0,0.28971 0,0.43456 0,0.14486 -0.10242,0.33214 0,0.43457 0.10243,0.10243 0.33214,-0.10243 0.43457,0 0.10243,0.10243 0,0.28971 0,0.43456 0,1.15885 0,2.3177 0,3.47654 0,0.72428 0,1.44856 0,2.17284 0,0.14485 0.10243,0.33213 0,0.43456 -0.10243,0.10243 -0.33214,-0.10243 -0.43457,0 -0.21728,0.21729 0.21729,1.08642 0,1.30371 -0.10242,0.10242 -0.33213,-0.10243 -0.43456,0 0,1.15884 0.14486,-0.14486 -0.43457,0.43456 -0.10243,0.10243 0.0648,0.30501 0,0.43457 -0.0916,0.18323 -0.34295,0.25134 -0.43456,0.43457 -0.0648,0.12956 0.10242,0.33213 0,0.43457 -0.10243,0.10242 -0.30501,-0.0648 -0.43457,0 -0.52148,0.26073 -0.78222,1.04295 -1.3037,1.30369 -1.07032,0.53516 0.3923,-1.26143 -1.3037,0.43457 -0.10243,0.10243 0.10242,0.33214 0,0.43457 -0.22904,0.22904 -0.56185,0.33214 -0.86914,0.43457 -0.27484,0.0916 -0.66428,-0.20486 -0.86913,0 -0.10243,0.10243 0,0.28971 0,0.43456 0,0.14486 -0.14486,0.43457 0,0.43457 0.14485,0 0.14485,-0.43457 0,-0.43457 -0.20486,0 -0.25134,0.34296 -0.43457,0.43457 -0.12956,0.0648 -0.33214,-0.10243 -0.43457,0 -0.57942,0.57942 0.72428,0.43457 -0.43456,0.43457 -0.86914,0 -1.73827,0 -2.6074,0 -0.14486,0 -0.33214,-0.10243 -0.43457,0 -0.22904,0.22904 -0.20553,0.6401 -0.43457,0.86913 -0.20486,0.20486 -0.66428,-0.20486 -0.86913,0 -0.20486,0.20486 0.20485,0.66428 0,0.86914 -0.10243,0.10243 -0.33214,-0.10243 -0.43457,0 -0.20486,0.20485 0.20485,0.66427 0,0.86913 -0.10243,0.10243 -0.33214,-0.10243 -0.43457,0 -0.10242,0.10243 0.10243,0.33214 0,0.43457 -0.89913,0.89913 0.0352,-1.374 -0.86913,0.43456 -0.0648,0.12957 0.10243,0.33214 0,0.43457 -0.10243,0.10243 -0.33214,-0.10243 -0.43457,0 -0.10243,0.10243 0.10243,0.33214 0,0.43457 -0.10243,0.10243 -0.36978,-0.12956 -0.43457,0 -0.14057,0.28114 0.15611,1.58216 0,1.73827 -0.10242,0.10242 -0.33214,-0.10243 -0.43456,0 -0.20486,0.20485 0.20485,0.66427 0,0.86913 -0.10243,0.10243 -0.33214,-0.10243 -0.43457,0 -0.10243,0.10243 -0.14486,0.43457 0,0.43457 0.14485,0 0,-0.57943 0,-0.43457 0,1.97827 0.20486,0.0249 -0.43457,1.3037 -0.0648,0.12957 0.10243,0.33214 0,0.43457 -0.10242,0.10243 -0.33213,-0.10243 -0.43456,0 -0.0888,0.0888 0.0861,1.1314 0,1.3037 -0.0916,0.18323 -0.34296,0.25134 -0.43457,0.43457 -0.12956,0.25912 0.0916,0.59429 0,0.86913 -0.10243,0.30729 -0.33214,0.56185 -0.43457,0.86913 -0.0912,0.27352 0,1.78114 0,2.17284 0,1.44856 0,2.89711 0,4.34567 0,0.14486 0,-0.57942 0,-0.43457 0,0.28971 0,0.57943 0,0.86914 0,0.28971 0.0703,0.58807 0,0.86913 0.26193,0.78654 -0.70397,0.80822 -0.86913,1.3037 -8.6e-4,0.002 4.1e-4,1.30329 0,1.3037 -0.10243,0.10243 -0.33214,-0.10242 -0.43457,0 -0.21728,0.21729 0.21728,1.08642 0,1.30371 -0.10243,0.10242 -0.33214,-0.10244 -0.43456,0 -0.10244,0.10242 0.10242,0.33214 0,0.43456 -0.10244,0.10243 -0.36979,-0.12956 -0.43458,0 -0.12956,0.25913 0,0.57942 0,0.86914 0,0.72427 0,1.44855 0,2.17283 0,0.28972 -0.20485,0.66428 0,0.86914 0.20486,0.20485 0.61001,-0.12957 0.86914,0 0.18039,0.0902 -0.15169,1.15201 0,1.3037 0.10243,0.10243 0.33214,-0.10243 0.43457,0 0,1.15884 -0.14486,-0.14486 0.43456,0.43457 0.10458,0.10456 -0.10457,1.63369 0,1.73826 0.10243,0.10243 0.33214,-0.10243 0.43457,0 0.10243,0.10243 0,0.28971 0,0.43457 0,0.72428 0,1.44855 0,2.17283 0,0.14486 0.10243,0.33214 0,0.43457 -0.10243,0.10243 -0.33214,-0.10243 -0.43457,0 -0.10242,0.10243 0.10243,0.33214 0,0.43457 -0.10242,0.10243 -0.28971,0 -0.43456,0 -0.30226,0 -2.01569,-0.0786 -2.17284,0 -0.18323,0.0916 -0.25134,0.34295 -0.43456,0.43457 -0.27314,0.13656 -1.46514,-0.13657 -1.73827,0 -0.18323,0.0916 -0.25134,0.34295 -0.43457,0.43456 -0.0227,0.0114 -1.28097,0.0114 -1.3037,0 -1.80857,-0.90428 0.46456,0.03 -0.43457,-0.86913 -0.10243,-0.10243 -0.33213,0.10243 -0.43457,0 -0.89913,-0.89914 1.374,0.0352 -0.43456,-0.86914 -0.12956,-0.0648 -0.33214,0.10243 -0.43457,0 -0.10243,-0.10242 0.0648,-0.305 0,-0.43456 -0.0916,-0.18323 -0.34295,-0.25134 -0.43457,-0.43457 -0.0648,-0.12956 0.10243,-0.33214 0,-0.43457 -0.10242,-0.10242 -0.33214,0.10243 -0.43456,0 -0.10243,-0.10242 0.10242,-0.33213 0,-0.43456 -0.10243,-0.10243 -0.33214,0.10243 -0.43457,0 -0.10243,-0.10243 0.10243,-0.33214 0,-0.43457 -0.10243,-0.10243 -0.30501,0.0648 -0.43457,0 -0.18323,-0.0916 -0.25134,-0.34295 -0.43457,-0.43457 -0.12956,-0.0648 -0.305,0.0648 -0.43456,0 -0.18323,-0.0916 -0.25134,-0.34295 -0.43457,-0.43457 -0.25912,-0.12956 -0.66428,0.20486 -0.86913,0 -0.10243,-0.10242 0.10243,-0.33213 0,-0.43456 -0.10243,-0.10243 -0.30501,0.0648 -0.43457,0 -0.18323,-0.0916 -0.25134,-0.34295 -0.43457,-0.43457 -0.25912,-0.12956 -0.61001,0.12957 -0.86913,0 -0.18323,-0.0916 -0.26412,-0.32093 -0.43457,-0.43456 -1.57855,-1.05237 -0.30731,0.12725 -1.3037,-0.86914 -0.14486,-0.14486 -0.25134,-0.34295 -0.43457,-0.43457 -0.12956,-0.0648 -0.38875,0.13743 -0.43456,0 -0.13742,-0.41226 0.13742,-0.89143 0,-1.3037 -0.0458,-0.13742 -0.33214,0.10243 -0.43457,0 -0.10243,-0.10243 0.10243,-0.33214 0,-0.43456 -0.22904,-0.22904 -0.6401,-0.20554 -0.86913,-0.43457 -0.10243,-0.10243 0.10242,-0.33214 0,-0.43457 -0.20486,-0.20486 -0.66428,0.20486 -0.86914,0 -0.14485,-0.28971 -0.28971,-0.57942 -0.43457,-0.86913 -0.14485,0 -0.33214,0.10242 -0.43456,0 -0.10243,-0.10243 0.12956,-0.36979 0,-0.43457 -0.25913,-0.12956 -0.61001,0.12956 -0.86914,0 -0.12956,-0.0648 0.10243,-0.33214 0,-0.43457 -0.10242,-0.10242 -0.33213,0.10243 -0.43456,0 -0.89914,-0.89913 1.37399,0.0351 -0.43457,-0.86913 -0.12956,-0.0648 -0.305,0.0648 -0.43457,0 -0.1798,-0.0899 -1.1809,-1.1195 -1.3037,-1.3037 -0.95742,-0.21885 -0.22971,-0.89399 -0.43456,-1.3037 -0.66263,-1.32524 -0.34452,0.79479 -0.86914,-1.30371 -0.0703,-0.28106 0,-0.57942 0,-0.86913 0,-0.14486 0.0648,-0.305 0,-0.43457 -0.0916,-0.18323 -0.34295,-0.25133 -0.43457,-0.43457 -0.0648,-0.12956 0.10243,-0.33213 0,-0.43456 -0.10243,-0.10243 -0.33214,0.10243 -0.43456,0 -0.10458,-0.10457 0.10457,-1.6337 0,-1.73827 -0.10243,-0.10243 -0.33214,0.10243 -0.43457,0 -0.10243,-0.10243 0,-0.28971 0,-0.43457 0,-0.14485 0,-0.28971 0,-0.43456 0,-1.15885 0,-2.31769 0,-3.47654 0,-0.14485 0.10243,-0.33214 0,-0.43457 -0.10243,-0.10242 -0.33214,0.10243 -0.43457,0 -0.13456,-0.13456 0.13456,-2.03827 0,-2.17283 -0.10243,-0.10243 -0.36979,0.12956 -0.43456,0 -0.12957,-0.25913 0.0916,-0.59429 0,-0.86913 -0.0648,-0.19435 -0.34296,-0.25134 -0.43457,-0.43457 -0.11788,-0.23575 0.11891,-1.61937 0,-1.73827 -0.10243,-0.10243 -0.33214,0.10243 -0.43457,0 0,-1.15885 0.14486,0.14485 -0.43457,-0.43457 -0.20485,-0.20485 0.20486,-0.66427 0,-0.86913 -0.10242,-0.10243 -0.305,0.0648 -0.43456,0 -0.36646,-0.18323 -0.50268,-0.68591 -0.86914,-0.86914 -0.12956,-0.0648 -0.33213,0.10243 -0.43457,0 -0.20485,-0.20485 0.20486,-0.66427 0,-0.86913 -0.20485,-0.20486 -0.61,0.12956 -0.86913,0 -0.52148,-0.26074 -0.78222,-1.04296 -1.3037,-1.3037 -0.12956,-0.0648 -0.33214,0.10243 -0.43457,0 -0.20486,-0.20486 0.12956,-0.61001 0,-0.86914 -0.0916,-0.18323 -0.34295,-0.25133 -0.43457,-0.43456 -0.0648,-0.12957 0.10244,-0.33214 0,-0.43457 -0.10242,-0.10243 -0.36978,0.12956 -0.43456,0 -0.12956,-0.25912 0.0916,-0.59429 0,-0.86913 -0.12956,-0.38869 -0.68591,-0.50268 -0.86914,-0.86914 -0.0323,-0.0646 -0.0318,-1.64284 0,-1.73826 0.10243,-0.30729 0.31428,-0.5684 0.43457,-0.86914 0.17013,-0.42531 0.22971,-0.89399 0.43457,-1.3037 0.17874,-0.35749 1.524,-1.41687 1.73827,-1.73827 0.0803,-0.12053 -0.0804,-0.31404 0,-0.43457 0.21426,-0.32139 1.55952,-1.38078 1.73826,-1.73827 0.0648,-0.12956 -0.0648,-0.305 0,-0.43456 0.0916,-0.18323 0.33508,-0.25549 0.43457,-0.43457 0.62921,-1.13258 0.96089,-2.44003 1.73827,-3.47653 0.17383,-0.23177 0.58807,0.0703 0.86914,0 0.7754,-0.19386 1.2108,-0.77625 1.73826,-1.30371 0.14486,-0.14485 0.25134,-0.34295 0.43457,-0.43456 0.12956,-0.0648 0.33214,0.10242 0.43457,0 0.10243,-0.10243 -0.10243,-0.33214 0,-0.43457 0.10243,-0.10243 0.28971,0 0.43457,0 0.14485,-0.14485 0.32093,-0.26412 0.43456,-0.43457 0.17967,-0.2695 0.25489,-0.59962 0.43457,-0.86913 0.11363,-0.17045 0.28971,-0.28971 0.43456,-0.43457 0.14486,-0.14485 0.25134,-0.34295 0.43457,-0.43457 0.12957,-0.0648 0.33214,0.10243 0.43457,0 0.10243,-0.10242 -0.0648,-0.305 0,-0.43456 1.44128,-1.44128 -0.20486,0.40971 0.43457,-0.86914 0.0702,-0.14045 1.54041,-1.60636 1.73826,-1.73827 0.26951,-0.17966 0.59963,-0.25489 0.86914,-0.43456 0.17045,-0.11364 0.24022,-0.36979 0.43457,-0.43457 0.27484,-0.0916 0.59429,0.0916 0.86913,0 0.19434,-0.0648 0.26411,-0.32093 0.43457,-0.43457 0.27693,-0.18462 2.32552,-1.23323 2.6074,-1.3037 0.409,-0.10225 0.8947,0.10225 1.3037,0 0.4444,-0.1111 0.87839,-0.26444 1.3037,-0.43457 0.30074,-0.12029 0.5549,-0.356 0.86913,-0.43456 0.45017,-0.11254 1.23997,0 1.73827,0 1.3037,0 2.60741,0 3.91111,0 0.86913,0 1.73827,0 2.6074,0 0.28971,0 0.61001,-0.12957 0.86914,0 0.12955,0.0648 -0.10244,0.33214 0,0.43456 0.10242,0.10243 0.2897,0 0.43456,0 0.31901,0 2.4559,-0.0757 2.6074,0 1.27885,0.63943 -0.67457,0.43457 1.3037,0.43457 0.34985,0 1.46552,-0.0909 1.73827,0 0.30729,0.10243 0.56185,0.33214 0.86914,0.43457 0.27484,0.0916 0.59428,-0.0916 0.86913,0 0.30729,0.10243 0.56185,0.33214 0.86914,0.43457 0.13741,0.0458 0.305,-0.0648 0.43456,0 1.98884,0.99442 -1.84405,-0.18012 1.3037,0.86913 0.13742,0.0458 0.28971,0 0.43457,0 0.14486,0.14485 0.25134,0.34295 0.43457,0.43457 0.12956,0.0648 0.36978,-0.12957 0.43456,0 0.12957,0.25912 -0.20485,0.66427 0,0.86913 0.32391,0.32391 0.92256,0.18048 1.3037,0.43457 0.12053,0.0803 -0.10242,0.33214 0,0.43457 0.027,1.22362 0.9798,0.11066 1.30371,0.43456 0.10242,0.10243 -0.10243,0.33214 0,0.43457 0.10242,0.10243 0.305,-0.0648 0.43456,0 1.44128,1.44128 -0.40971,-0.20486 0.86914,0.43457 0.18322,0.0916 0.22971,0.43456 0.43456,0.43456 0.59726,0 1.31595,-0.85688 1.73827,-0.43456 0.36931,0.36931 -0.74246,0.79701 -0.86913,1.3037 -0.0497,0.19874 0.28971,0.28971 0.43457,0.43457"
         id="path3400"
         inkscape:connector-curvature="0" />
    </clipPath>
  </defs>
  <metadata
     id="metadata7">
    <rdf:RDF>
      <cc:Work
         rdf:about="">
        <dc:format>image/svg+xml</dc:format>
        <dc:type
           rdf:resource="http://purl.org/dc/dcmitype/StillImage" />
        <dc:title></dc:title>
      </cc:Work>
    </rdf:RDF>
  </metadata>
  <g
     id="layer1"
     inkscape:groupmode="layer"
     inkscape:label="Layer 1">
    <g
       id="g4384"
       transform="translate(-640.43671,139.40105)">
      <g
         transform="translate(488.57143,191.42857)"
         id="g3482">
        <path
           inkscape:connector-curvature="0"
           id="path3462"
           d="m 477.98588,603.90382 c -42.3134,-7.5479 -77.03213,-41.08789 -85.57876,-82.67324 -12.72127,-61.89792 33.1817,-121.81303 96.00456,-125.31048 11.95928,-0.6658 11.34718,-0.21368 -4.85971,3.5895 -29.51197,6.92542 -55.54724,31.55443 -65.29952,61.77247 -8.27304,25.63454 -3.2641,58.69754 12.10716,79.91695 4.79085,6.61358 6.58127,6.7012 28.40909,1.39038 31.47694,-7.65853 55.40827,-2.2851 55.40827,12.44111 0,7.37759 -1.49095,7.98712 -17.11798,6.99829 -13.48528,-0.8533 -13.58267,-0.83927 -17.59618,2.53788 -8.15544,6.86235 -4.18858,12.37119 10.96416,15.22605 22.88021,4.31077 48.6991,-1.24982 68.35023,-14.7205 6.68348,-4.58148 12.40562,-4.78401 14.35388,-0.50805 1.87985,4.12583 -0.37777,7.44044 -11.16512,16.39244 -9.60145,7.96789 -29.50475,18.0817 -41.53899,21.10795 -9.90133,2.48989 -33.14635,3.49725 -42.44109,1.83925 z m 13.69109,-27.0776 c -6.28534,-0.73855 -7.8083,-2.83584 -2.05926,-2.83584 11.88541,0 32.83272,-7.53303 52.03976,-18.71443 5.26688,-3.06613 9.14847,-3.22802 11.88096,-0.49553 2.59606,2.59605 -0.82929,6.54103 -11.06676,12.74558 -14.90986,9.03633 -29.81506,11.76538 -50.7947,9.30022 z"
           style="fill-opacity:1"
           sodipodi:nodetypes="ssssssssssssssssssssss" />
        <path
           inkscape:connector-curvature="0"
           id="path3430"
           d="m 572.48299,539.45132 c 14.09427,-32.14507 13.07315,-63.59479 -3.01702,-92.92287 -5.37617,-9.79931 -6.36254,-14.70616 -3.64591,-18.13743 4.72043,-5.96221 1.4095,-10.31411 -13.26026,-17.42921 -40.27372,-19.53366 -102.01663,9.10697 -114.91804,53.30693 -7.56451,25.91587 17.24241,32.40516 53.29998,13.94282 9.73799,-4.98611 11.00943,-4.75822 16.86786,3.02312 6.24382,8.2932 11.92068,8.83773 9.80448,0.94044 -0.59657,-2.22604 0.89676,-1.59933 3.31841,1.39277 6.41671,7.92818 10.18502,3.04503 5.3749,-6.96504 -2.26554,-4.71471 -3.31452,-9.17802 -2.33105,-9.91844 3.30667,-2.48953 16.1074,1.40136 23.01165,6.99461 8.51863,6.90105 11.01998,5.26371 8.60789,-5.63454 -7.73588,-34.95201 -38.89497,-51.34336 -74.71789,-39.30562 -7.34598,2.46849 -7.07175,2.02497 2.02527,-3.27537 21.90812,-12.76472 54.69945,-7.9667 68.24347,9.98538 22.12194,29.32177 12.04004,63.81722 -17.61846,60.28199 l -11.98956,-1.42914 6.17191,8.19771 c 3.39456,4.50873 11.70084,10.62324 18.4584,13.5878 l 12.28647,5.3901 1.93453,16.71072 c 2.41056,20.82271 3.46846,20.93322 12.09292,1.26329 z M 455.94831,453.69757 c -1.54254,-2.04885 -1.12828,-4.98726 0.92056,-6.5298 2.04886,-1.54254 4.98725,-1.12829 6.52979,0.92056 1.54255,2.04885 1.12831,4.98724 -0.92055,6.52979 -2.04885,1.54253 -4.98724,1.12831 -6.5298,-0.92055 z"
           style="fill-opacity:1"
           sodipodi:nodetypes="csssssssssssssssscsscsccsssss" />
      </g>
    </g>
    <path
       inkscape:connector-curvature="0"
       id="path3430-4"
       d="m 954.91945,348.3541 c 17.37586,-5.23194 30.94805,-19.96553 30.94805,-33.59636 0,-10.82659 -7.93016,-8.53457 -15.07341,4.3566 -7.84533,14.15823 -13.79064,20.17699 -24.83694,25.14382 -5.2558,2.3632 -9.556,4.75529 -9.556,5.31575 0,1.59855 11.72274,0.82636 18.5183,-1.21981 z m -24.46211,-8.81022 c 22.12889,-12.4431 35.22097,-31.0603 38.68249,-55.00728 1.15658,-8.00134 2.72134,-11.26584 5.78389,-12.06671 5.32151,-1.39161 5.30159,-5.34672 -0.0798,-15.84016 -14.77378,-28.80835 -62.91145,-39.11969 -89.5955,-19.19183 -15.64573,11.68436 -4.1344,26.22633 24.73317,31.24477 7.79621,1.35531 8.43176,2.04013 8.43176,9.08521 0,7.50851 3.04344,10.29286 5.2563,4.80883 0.62375,-1.54583 1.21397,-0.53402 1.3116,2.24847 0.2587,7.3728 4.56059,6.19051 6.13596,-1.68636 0.742,-3.70997 2.0776,-6.74541 2.96801,-6.74541 2.9938,0 8.69787,7.81725 10.25411,14.05294 1.92013,7.69373 4.07784,7.83581 7.42529,0.48897 10.73566,-23.56221 -0.13835,-46.5895 -26.07532,-55.21826 -5.31872,-1.76945 -4.96731,-1.90642 2.59523,-1.01156 18.21269,2.15509 35.07352,19.19337 35.08982,35.45912 0.0266,26.56744 -20.80628,42.11426 -36.4062,27.16859 l -6.30633,-6.04184 0,7.42205 c 0,4.08213 2.13961,11.22898 4.75469,15.88188 l 4.75469,8.45983 -6.1521,10.49777 c -7.66595,13.08094 -7.10273,13.60504 6.4382,5.99098 z M 900.42567,239.29366 c 0,-1.85499 1.51772,-3.37271 3.37271,-3.37271 1.85499,0 3.3727,1.51772 3.3727,3.37271 0,1.85499 -1.51771,3.3727 -3.3727,3.3727 -1.85499,0 -3.37271,-1.51771 -3.37271,-3.3727 z m 6.74541,105.07292 c 0,-1.091 -2.52952,-4.36002 -5.62117,-7.26447 -3.09165,-2.90445 -5.62682,-6.36921 -5.63372,-7.69946 -0.0416,-8.0204 -4.91991,-18.97393 -7.93504,-17.81691 -4.56238,1.75075 -4.10756,11.8102 0.89952,19.8952 4.15644,6.71145 18.29041,16.66886 18.29041,12.88564 z m 71.04044,-47.9762 c 2.35582,-2.60491 8.25723,-6.76436 13.11425,-9.24322 7.19215,-3.67064 8.16403,-4.88025 5.23716,-6.51821 -7.06144,-3.95178 -19.61157,4.49165 -22.94755,15.43858 -1.91875,6.29634 -0.8726,6.36983 4.59614,0.32285 z"
       style="fill-opacity:1"
       sodipodi:nodetypes="sssssscsssssssssssssssscsscsccssssssssssssssss" />
    <path
       inkscape:connector-curvature="0"
       id="path3462-0"
       d="m 1200.4867,426.77972 c -42.3134,-7.5479 -77.0321,-41.08789 -85.5788,-82.67324 -12.7212,-61.89792 33.1817,-121.81303 96.0046,-125.31048 11.9593,-0.6658 11.3472,-0.21368 -4.8597,3.5895 -29.512,6.92542 -55.5473,31.55443 -65.2995,61.77247 -8.2731,25.63454 -3.2641,58.69754 12.1071,79.91695 4.7909,6.61358 6.5813,6.7012 28.4091,1.39038 31.4769,-7.65853 55.4083,-2.2851 55.4083,12.44111 0,7.37759 -1.491,7.98712 -17.118,6.99829 -13.4853,-0.8533 -13.5827,-0.83927 -17.5962,2.53788 -8.1554,6.86235 -4.1886,12.37119 10.9642,15.22605 22.8802,4.31077 48.6991,-1.24982 68.3502,-14.7205 6.6835,-4.58148 12.4056,-4.78401 14.3539,-0.50805 1.8798,4.12583 -0.3778,7.44044 -11.1651,16.39244 -9.6015,7.96789 -29.5048,18.0817 -41.539,21.10795 -9.9014,2.48989 -33.1464,3.49725 -42.4411,1.83925 z m 13.6911,-27.0776 c -6.2854,-0.73855 -7.8083,-2.83584 -2.0593,-2.83584 11.8854,0 32.8327,-7.53303 52.0398,-18.71443 5.2669,-3.06613 9.1484,-3.22802 11.8809,-0.49553 2.5961,2.59605 -0.8293,6.54103 -11.0667,12.74558 -14.9099,9.03633 -29.8151,11.76538 -50.7947,9.30022 z"
       style="fill-opacity:1"
       sodipodi:nodetypes="ssssssssssssssssssssss" />
    <g
       id="g4368"
       transform="translate(60,76.42857)">
      <path
         sodipodi:nodetypes="ssssssssssssssssssssss"
         style="fill:#2619bb;fill-opacity:1"
         d="m 394.5308,537.5036 c -42.3134,-7.5479 -77.03213,-41.08789 -85.57876,-82.67324 -12.72127,-61.89792 33.1817,-121.81303 96.00456,-125.31048 11.95928,-0.6658 11.34718,-0.21368 -4.85971,3.5895 -29.51197,6.92542 -55.54724,31.55443 -65.29952,61.77247 -8.27304,25.63454 -3.2641,58.69754 12.10716,79.91695 4.79085,6.61358 6.58127,6.7012 28.40909,1.39038 31.47694,-7.65853 55.40827,-2.2851 55.40827,12.44111 0,7.37759 -1.49095,7.98712 -17.11798,6.99829 -13.48528,-0.8533 -13.58267,-0.83927 -17.59618,2.53788 -8.15544,6.86235 -4.18858,12.37119 10.96416,15.22605 22.88021,4.31077 48.6991,-1.24982 68.35023,-14.7205 6.68348,-4.58148 12.40562,-4.78401 14.35388,-0.50805 1.87985,4.12583 -0.37777,7.44044 -11.16512,16.39244 -9.60145,7.96789 -29.50475,18.0817 -41.53899,21.10795 -9.90133,2.48989 -33.14635,3.49725 -42.44109,1.83925 z m 13.69109,-27.0776 c -6.28534,-0.73855 -7.8083,-2.83584 -2.05926,-2.83584 11.88541,0 32.83272,-7.53303 52.03976,-18.71443 5.26688,-3.06613 9.14847,-3.22802 11.88096,-0.49553 2.59606,2.59605 -0.82929,6.54103 -11.06676,12.74558 -14.90986,9.03633 -29.81506,11.76538 -50.7947,9.30022 z"
         id="path3462-1"
         inkscape:connector-curvature="0" />
      <path
         sodipodi:nodetypes="csssssssssssssssscsscsccsssss"
         style="fill:#54e46c;fill-opacity:1"
         d="m 489.02791,473.0511 c 14.09427,-32.14507 13.07315,-63.59479 -3.01702,-92.92287 -5.37617,-9.79931 -6.36254,-14.70616 -3.64591,-18.13743 4.72043,-5.96221 1.4095,-10.31411 -13.26026,-17.42921 -40.27372,-19.53366 -102.01663,9.10697 -114.91804,53.30693 -7.56451,25.91587 17.24241,32.40516 53.29998,13.94282 9.73799,-4.98611 11.00943,-4.75822 16.86786,3.02312 6.24382,8.2932 11.92068,8.83773 9.80448,0.94044 -0.59657,-2.22604 0.89676,-1.59933 3.31841,1.39277 6.41671,7.92818 10.18502,3.04503 5.3749,-6.96504 -2.26554,-4.71471 -3.31452,-9.17802 -2.33105,-9.91844 3.30667,-2.48953 16.1074,1.40136 23.01165,6.99461 8.51863,6.90105 11.01998,5.26371 8.60789,-5.63454 -7.73588,-34.95201 -38.89497,-51.34336 -74.71789,-39.30562 -7.34598,2.46849 -7.07175,2.02497 2.02527,-3.27537 21.90812,-12.76472 54.69945,-7.9667 68.24347,9.98538 22.12194,29.32177 12.04004,63.81722 -17.61846,60.28199 l -11.98956,-1.42914 6.17191,8.19771 c 3.39456,4.50873 11.70084,10.62324 18.4584,13.5878 l 12.28647,5.3901 1.93453,16.71072 c 2.41056,20.82271 3.46846,20.93322 12.09292,1.26329 z M 372.49323,387.29735 c -1.54254,-2.04885 -1.12828,-4.98726 0.92056,-6.5298 2.04886,-1.54254 4.98725,-1.12829 6.52979,0.92056 1.54255,2.04885 1.12831,4.98724 -0.92055,6.52979 -2.04885,1.54253 -4.98724,1.12831 -6.5298,-0.92055 z"
         id="path3430-3"
         inkscape:connector-curvature="0" />
    </g>
    <g
       id="g4372"
       transform="translate(60,-3.5714339)">
      <path
         sodipodi:nodetypes="ssssssssssssssssssssss"
         style="fill:#d6792e;fill-opacity:1"
         d="m 395.24508,308.93217 c -42.3134,-7.5479 -77.03213,-41.08789 -85.57876,-82.67324 -12.72127,-61.89792 33.1817,-121.81303 96.00456,-125.31048 11.95928,-0.6658 11.34718,-0.21368 -4.85971,3.5895 -29.51197,6.92542 -55.54724,31.55443 -65.29952,61.77247 -8.27304,25.63454 -3.2641,58.69754 12.10716,79.91695 4.79085,6.61358 6.58127,6.7012 28.40909,1.39038 31.47694,-7.65853 55.40827,-2.2851 55.40827,12.44111 0,7.37759 -1.49095,7.98712 -17.11798,6.99829 -13.48528,-0.8533 -13.58267,-0.83927 -17.59618,2.53788 -8.15544,6.86235 -4.18858,12.37119 10.96416,15.22605 22.88021,4.31077 48.6991,-1.24982 68.35023,-14.7205 6.68348,-4.58148 12.40562,-4.78401 14.35388,-0.50805 1.87985,4.12583 -0.37777,7.44044 -11.16512,16.39244 -9.60145,7.96789 -29.50475,18.0817 -41.53899,21.10795 -9.90133,2.48989 -33.14635,3.49725 -42.44109,1.83925 z m 13.69109,-27.0776 c -6.28534,-0.73855 -7.8083,-2.83584 -2.05926,-2.83584 11.88541,0 32.83272,-7.53303 52.03976,-18.71443 5.26688,-3.06613 9.14847,-3.22802 11.88096,-0.49553 2.59606,2.59605 -0.82929,6.54103 -11.06676,12.74558 -14.90986,9.03633 -29.81506,11.76538 -50.7947,9.30022 z"
         id="path3462-1-6"
         inkscape:connector-curvature="0" />
      <path
         sodipodi:nodetypes="csssssssssssssssscsscsccsssss"
         style="fill:#54e46c;fill-opacity:1"
         d="m 489.74219,244.47967 c 14.09427,-32.14507 13.07315,-63.59479 -3.01702,-92.92287 -5.37617,-9.79931 -6.36254,-14.70616 -3.64591,-18.13743 4.72043,-5.96221 1.4095,-10.31411 -13.26026,-17.42921 -40.27372,-19.533664 -102.01663,9.10697 -114.91804,53.30693 -7.56451,25.91587 17.24241,32.40516 53.29998,13.94282 9.73799,-4.98611 11.00943,-4.75822 16.86786,3.02312 6.24382,8.2932 11.92068,8.83773 9.80448,0.94044 -0.59657,-2.22604 0.89676,-1.59933 3.31841,1.39277 6.41671,7.92818 10.18502,3.04503 5.3749,-6.96504 -2.26554,-4.71471 -3.31452,-9.17802 -2.33105,-9.91844 3.30667,-2.48953 16.1074,1.40136 23.01165,6.99461 8.51863,6.90105 11.01998,5.26371 8.60789,-5.63454 -7.73588,-34.95201 -38.89497,-51.34336 -74.71789,-39.30562 -7.34598,2.46849 -7.07175,2.02497 2.02527,-3.27537 21.90812,-12.76472 54.69945,-7.9667 68.24347,9.98538 22.12194,29.32177 12.04004,63.81722 -17.61846,60.28199 l -11.98956,-1.42914 6.17191,8.19771 c 3.39456,4.50873 11.70084,10.62324 18.4584,13.5878 l 12.28647,5.3901 1.93453,16.71072 c 2.41056,20.82271 3.46846,20.93322 12.09292,1.26329 z M 373.20751,158.72592 c -1.54254,-2.04885 -1.12828,-4.98726 0.92056,-6.5298 2.04886,-1.54254 4.98725,-1.12829 6.52979,0.92056 1.54255,2.04885 1.12831,4.98724 -0.92055,6.52979 -2.04885,1.54253 -4.98724,1.12831 -6.5298,-0.92055 z"
         id="path3430-3-1"
         inkscape:connector-curvature="0" />
    </g>
    <g
       id="g4376"
       transform="translate(0.35714,8.442139e-6)">
      <path
         sodipodi:nodetypes="ssssssssssssssssssssss"
         style="fill:#54e46c;fill-opacity:1"
         d="m 167.38794,305.36074 c -42.31339,-7.5479 -77.03212,-41.08789 -85.57875,-82.67324 -12.72128,-61.89792 33.1817,-121.81303 96.00455,-125.310484 11.95928,-0.6658 11.34718,-0.21368 -4.85971,3.589504 -29.51196,6.92542 -55.54723,31.55443 -65.29951,61.77247 -8.27304,25.63454 -3.2641,58.69754 12.10716,79.91695 4.79085,6.61358 6.58127,6.7012 28.40909,1.39038 31.47693,-7.65853 55.40826,-2.2851 55.40826,12.44111 0,7.37759 -1.49095,7.98712 -17.11798,6.99829 -13.48528,-0.8533 -13.58267,-0.83927 -17.59618,2.53788 -8.15544,6.86235 -4.18858,12.37119 10.96416,15.22605 22.88021,4.31077 48.6991,-1.24982 68.35023,-14.7205 6.68348,-4.58148 12.40562,-4.78401 14.35388,-0.50805 1.87985,4.12583 -0.37777,7.44044 -11.16512,16.39244 -9.60145,7.96789 -29.50475,18.0817 -41.53899,21.10795 -9.90133,2.48989 -33.14635,3.49725 -42.44109,1.83925 z m 13.69109,-27.0776 c -6.28534,-0.73855 -7.8083,-2.83584 -2.05926,-2.83584 11.88541,0 32.83272,-7.53303 52.03976,-18.71443 5.26688,-3.06613 9.14847,-3.22802 11.88096,-0.49553 2.59606,2.59605 -0.82929,6.54103 -11.06676,12.74558 -14.90986,9.03633 -29.81506,11.76538 -50.7947,9.30022 z"
         id="path3462-1-9-0"
         inkscape:connector-curvature="0" />
      <path
         sodipodi:nodetypes="csssssssssssssssscsscsccsssss"
         style="fill:#d6792e;fill-opacity:1"
         d="m 261.88505,240.90824 c 14.09427,-32.14507 13.07315,-63.59479 -3.01702,-92.92287 -5.37617,-9.79931 -6.36254,-14.70616 -3.64591,-18.13743 4.72043,-5.96221 1.4095,-10.31411 -13.26026,-17.42921 -40.27372,-19.533664 -102.01662,9.10697 -114.91803,53.30693 -7.56451,25.91587 17.24241,32.40516 53.29997,13.94282 9.73799,-4.98611 11.00943,-4.75822 16.86786,3.02312 6.24382,8.2932 11.92068,8.83773 9.80448,0.94044 -0.59657,-2.22604 0.89676,-1.59933 3.31841,1.39277 6.41671,7.92818 10.18502,3.04503 5.3749,-6.96504 -2.26554,-4.71471 -3.31452,-9.17802 -2.33105,-9.91844 3.30667,-2.48953 16.1074,1.40136 23.01165,6.99461 8.51863,6.90105 11.01998,5.26371 8.60789,-5.63454 -7.73588,-34.95201 -38.89497,-51.34336 -74.71789,-39.30562 -7.34598,2.46849 -7.07175,2.02497 2.02527,-3.27537 21.90812,-12.76472 54.69945,-7.9667 68.24347,9.98538 22.12194,29.32177 12.04004,63.81722 -17.61846,60.28199 l -11.98956,-1.42914 6.17191,8.19771 c 3.39456,4.50873 11.70084,10.62324 18.4584,13.5878 l 12.28647,5.3901 1.93453,16.71072 c 2.41056,20.82271 3.46846,20.93322 12.09292,1.26329 z M 145.35038,155.15449 c -1.54254,-2.04885 -1.12828,-4.98726 0.92056,-6.5298 2.04886,-1.54254 4.98725,-1.12829 6.52978,0.92056 1.54255,2.04885 1.12831,4.98724 -0.92055,6.52979 -2.04884,1.54253 -4.98723,1.12831 -6.52979,-0.92055 z"
         id="path3430-3-0-3"
         inkscape:connector-curvature="0" />
    </g>
    <g
       id="g4571"
       transform="translate(-461.69236,-329.48516)">
      <path
         sodipodi:nodetypes="ssssssssssssssssssssss"
         style="fill:#3fd16e;fill-opacity:1;stroke:none;stroke-opacity:1"
         d="m 627.38794,938.93217 c -42.31339,-7.5479 -77.03212,-41.08789 -85.57875,-82.67324 -12.72127,-61.89792 33.1817,-121.81303 96.00455,-125.31048 11.95928,-0.6658 11.34718,-0.21368 -4.85971,3.5895 -29.51196,6.92542 -55.54723,31.55443 -65.29951,61.77247 -8.27304,25.63454 -3.2641,58.69754 12.10716,79.91695 4.79085,6.61358 6.58127,6.7012 28.40909,1.39038 31.47693,-7.65853 55.40826,-2.2851 55.40826,12.44111 0,7.37759 -1.49095,7.98712 -17.11798,6.99829 -13.48528,-0.8533 -13.58267,-0.83927 -17.59618,2.53788 -8.15543,6.86235 -4.18858,12.37119 10.96416,15.22605 22.88021,4.31077 48.6991,-1.24982 68.35023,-14.7205 6.68348,-4.58148 12.40562,-4.78401 14.35388,-0.50805 1.87985,4.12583 -0.37777,7.44044 -11.16512,16.39244 -9.60145,7.96789 -29.50475,18.0817 -41.53899,21.10795 -9.90133,2.48989 -33.14635,3.49725 -42.44109,1.83925 z m 13.69109,-27.0776 c -6.28534,-0.73855 -7.8083,-2.83584 -2.05926,-2.83584 11.88541,0 32.83272,-7.53303 52.03976,-18.71443 5.26688,-3.06613 9.14847,-3.22802 11.88096,-0.49553 2.59606,2.59605 -0.82929,6.54103 -11.06676,12.74558 -14.90986,9.03633 -29.81506,11.76538 -50.7947,9.30022 z"
         id="path3462-1-9-06"
         inkscape:connector-curvature="0" />
      <path
         sodipodi:nodetypes="csssssssssssssssscsscsccsssss"
         style="fill:#6c5edd;fill-opacity:1"
         d="m 721.88505,874.47967 c 14.09427,-32.14507 13.07315,-63.59479 -3.01702,-92.92287 -5.37617,-9.79931 -6.36254,-14.70616 -3.64591,-18.13743 4.72043,-5.96221 1.4095,-10.31411 -13.26026,-17.42921 -40.27372,-19.53366 -102.01662,9.10697 -114.91803,53.30693 -7.56451,25.91587 17.24241,32.40516 53.29997,13.94282 9.73799,-4.98611 11.00943,-4.75822 16.86786,3.02312 6.24382,8.2932 11.92068,8.83773 9.80448,0.94044 -0.59657,-2.22604 0.89676,-1.59933 3.31841,1.39277 6.41671,7.92818 10.18502,3.04503 5.3749,-6.96504 -2.26554,-4.71471 -3.31452,-9.17802 -2.33105,-9.91844 3.30667,-2.48953 16.1074,1.40136 23.01165,6.99461 8.51863,6.90105 11.01998,5.26371 8.60789,-5.63454 -7.73588,-34.95201 -38.89497,-51.34336 -74.71789,-39.30562 -7.34598,2.46849 -7.07175,2.02497 2.02527,-3.27537 21.90812,-12.76472 54.69945,-7.9667 68.24347,9.98538 22.12194,29.32177 12.04004,63.81722 -17.61846,60.28199 l -11.98956,-1.42914 6.17191,8.19771 c 3.39456,4.50873 11.70084,10.62324 18.4584,13.5878 l 12.28647,5.3901 1.93453,16.71072 c 2.41056,20.82271 3.46846,20.93322 12.09292,1.26329 z M 605.35038,788.72592 c -1.54254,-2.04885 -1.12828,-4.98726 0.92056,-6.5298 2.04886,-1.54254 4.98725,-1.12829 6.52979,0.92056 1.54255,2.04885 1.12831,4.98724 -0.92055,6.52979 -2.04885,1.54253 -4.98724,1.12831 -6.5298,-0.92055 z"
         id="path3430-3-0-6"
         inkscape:connector-curvature="0" />
    </g>
  </g>
</svg>
