<svg version="1" xmlns="http://www.w3.org/2000/svg" width="386.667" height="386.667" viewBox="0 0 290.000000 290.000000"><path d="M125.9 5.1c-60.6 6.4-110.1 52-123 113.2C0 132-.2 156.2 2.4 170 8 199 20.6 222.7 42 244.1c17.9 18 37.7 29.9 61 36.9 14 4.1 25.6 5.4 42.6 4.6 25.3-1.2 35-3.5 55.9-13.6 15.3-7.4 29.1-16.5 38.3-25.6 6.1-6.1 7.2-7.6 7.2-10.5 0-1.9-.7-4.5-1.6-5.8-1.5-2-2.3-2.3-6.8-1.9-4 .3-7.2 1.7-15.1 6.5-11 6.6-20.9 11.1-31.3 14.2-25.6 7.6-60.3 6.6-73.3-2.2-6.2-4.1-4.6-11.6 3.6-16.7 3.3-2 4.5-2.1 22.1-1.8 18.5.3 18.6.3 20.5-2.1 3.7-4.6 1.9-14-3.7-19.3-7.2-6.7-18.7-9.3-38.6-8.6-11.8.5-17.5 1.3-33 4.7-21.9 4.8-28.4 5.2-31.9 1.8-9.3-8.5-19.8-32.3-23.5-52.7-2.3-12.9-2.4-34.7-.1-46.3 7.3-36.6 33.1-70.3 66.7-87.2 10-5 16.9-7.4 31.1-11 5.7-1.5 10.6-2.8 10.8-3.1.6-.6-8.3-.3-17 .7z"/><path d="M167.3 17.1c-19.8 2.3-42.3 11-60.2 23.2-9.2 6.3-25.3 22.1-30.4 30-9.1 13.8-14.1 27-14.2 37.2 0 9.1 2.4 13.9 8.9 18 4.2 2.6 5.9 3 14.1 3.3 14.6.7 29-3.3 50.4-13.7 11.1-5.4 13.9-5.4 18.8.1 9.8 10.8 12.2 13 14.5 12.6 2-.3 2.3-.9 2.3-4.6 0-2.3.2-4.2.4-4.2s2.6 2.1 5.3 4.6c2.8 2.6 5.6 4.4 6.6 4.2 2.9-.6 2.6-6.7-.8-15.3-1.7-4.3-3-9-2.8-10.4.3-2.2.8-2.6 4.2-2.9 6.2-.5 16.8 3.3 25.7 9.4 12.6 8.5 15.2 7.6 13.1-4.6-2.7-15.6-12-33.2-22.7-42.7-21.3-19-48.8-22.5-84-10.8-4.5 1.5 3.2-3.6 12-7.9 11.5-5.7 20.9-7.8 35-7.7 29 .1 49.6 12.2 61.4 36.2 6.3 12.7 8.5 22.2 7.8 33.4-1 16-8.6 27.7-21.2 32.5-5.5 2-7.1 2.2-18 1.6-6.6-.3-13.1-.9-14.5-1.3-2.2-.6-1.8.1 2.9 6.3 2.9 3.8 6.7 8.2 8.5 9.7 5.7 5.2 16.2 11.6 25.7 15.7 5.1 2.2 9.7 4.4 10 4.8.4.4 1.5 7 2.3 14.7 1.9 16.6 3.4 25.3 4.8 27.8.8 1.5 1.2 1.6 2.5.5 2.3-1.9 11.7-21.9 15.3-32.7 6-17.7 7.4-26.8 7.4-46.1-.1-25-3.2-37.3-15.7-63-8.1-16.6-9.2-21.6-5.8-27 4.9-8.1 1.2-13.4-15.3-21.5-18.5-9.1-33.8-11.8-54.3-9.4zM97.7 74.2c2.8 2.6 3 6.1.3 8.8-2.6 2.6-5.8 2.5-8.7-.2-2.9-2.7-2.9-5.5-.1-8.5 2.7-2.9 5.5-2.9 8.5-.1zM198.4 222.5c-25.1 13.1-42.4 19.3-60.4 21.8-9.3 1.3-9.4 1.4-6.5 2.8 4.9 2.2 40.1 1.9 48.5-.4 8.4-2.4 23.1-9.3 30.8-14.6 9.9-6.7 12.5-11.4 8-14.5-3.8-2.7-7.4-1.8-20.4 4.9z"/></svg>